# xmcd
#
# Track frame offsets: 
#        150
#        26325
#        55575
#        74925
#
# Disc length: 1260 seconds
#
# Revision: 0
# Processed by: cddbd v1.5.2PL0 Copyright (c) Steve Scherf et al.
# Submitted via: ExactAudioCopy v0.99pb5
#
DISCID=3204ea04
DTITLE=Juicy Band - Juicy Band
DYEAR=2013
DGENRE=Blues
TTITLE0=01.Morally debious
TTITLE1=02.Detachment
TTITLE2=03.Bin- rider
TTITLE3=04.Funny hoax
EXTD=
EXTT0=
EXTT1=
EXTT2=
EXTT3=
PLAYORDER=
